<svg xmlns="http://www.w3.org/2000/svg" xmlns:xlink="http://www.w3.org/1999/xlink" version="1.1" width="1000" height="1000" viewBox="0 0 1000 1000" xml:space="preserve">
<desc>Created with Fabric.js 3.5.0</desc>
<defs>
</defs>
<rect x="0" y="0" width="100%" height="100%" fill="rgba(255,255,255,0)"/>
<g transform="matrix(37.8788 0 0 37.8788 500.0001 500.0001)" id="969839">
<g style="" vector-effect="non-scaling-stroke">
		<g transform="matrix(1 0 0 1 5.9874 -6.6334)">
<path style="stroke: rgb(255,255,255); stroke-width: 1.7777; stroke-dasharray: none; stroke-linecap: round; stroke-dashoffset: 0; stroke-linejoin: round; stroke-miterlimit: 10; is-custom-font: none; font-file-url: none; fill: none; fill-rule: nonzero; opacity: 1;" transform=" translate(-14.4874, -5.3667)" d="M 13.0146 5.3667 H 15.9602" stroke-linecap="round"/>
</g>
		<g transform="matrix(1 0 0 1 4.5145 -6.6257)">
<path style="stroke: rgb(255,255,255); stroke-width: 1.7777; stroke-dasharray: none; stroke-linecap: round; stroke-dashoffset: 0; stroke-linejoin: round; stroke-miterlimit: 10; is-custom-font: none; font-file-url: none; fill: none; fill-rule: nonzero; opacity: 1;" transform=" translate(-13.0146, -5.3744)" d="M 13.0146 7.06953 V 3.6792" stroke-linecap="round"/>
</g>
		<g transform="matrix(1 0 0 1 -3.2667 0.0065)">
<path style="stroke: rgb(255,255,255); stroke-width: 1.7777; stroke-dasharray: none; stroke-linecap: round; stroke-dashoffset: 0; stroke-linejoin: round; stroke-miterlimit: 10; is-custom-font: none; font-file-url: none; fill: none; fill-rule: nonzero; opacity: 1;" transform=" translate(-5.2333, -12.0066)" d="M 5.23328 13.6957 V 10.3174" stroke-linecap="round"/>
</g>
		<g transform="matrix(1 0 0 1 1.749 6.6315)">
<path style="stroke: rgb(255,255,255); stroke-width: 1.7777; stroke-dasharray: none; stroke-linecap: round; stroke-dashoffset: 0; stroke-linejoin: round; stroke-miterlimit: 10; is-custom-font: none; font-file-url: none; fill: none; fill-rule: nonzero; opacity: 1;" transform=" translate(-10.2491, -18.6315)" d="M 10.2491 20.3207 V 16.9424" stroke-linecap="round"/>
</g>
		<g transform="matrix(1 0 0 1 4.0376 -0.002)">
<path style="stroke: rgb(255,255,255); stroke-width: 1.7777; stroke-dasharray: none; stroke-linecap: round; stroke-dashoffset: 0; stroke-linejoin: round; stroke-miterlimit: 10; is-custom-font: none; font-file-url: none; fill: none; fill-rule: nonzero; opacity: 1;" transform=" translate(-12.5376, -11.998)" d="M 9.11719 11.998 H 15.958" stroke-linecap="round"/>
</g>
		<g transform="matrix(1 0 0 1 4.6044 6.63)">
<path style="stroke: rgb(255,255,255); stroke-width: 1.7777; stroke-dasharray: none; stroke-linecap: round; stroke-dashoffset: 0; stroke-linejoin: round; stroke-miterlimit: 10; is-custom-font: none; font-file-url: none; fill: none; fill-rule: nonzero; opacity: 1;" transform=" translate(-13.1044, -18.6301)" d="M 10.2491 18.6301 H 15.9598" stroke-linecap="round"/>
</g>
		<g transform="matrix(1 0 0 1 -3.4144 -6.6336)">
<path style="stroke: rgb(255,255,255); stroke-width: 1.7777; stroke-dasharray: none; stroke-linecap: round; stroke-dashoffset: 0; stroke-linejoin: round; stroke-miterlimit: 10; is-custom-font: none; font-file-url: none; fill: none; fill-rule: nonzero; opacity: 1;" transform=" translate(-5.0856, -5.3665)" d="M 1.04004 5.36646 H 9.13116" stroke-linecap="round"/>
</g>
		<g transform="matrix(1 0 0 1 -5.362 -0.0017)">
<path style="stroke: rgb(255,255,255); stroke-width: 1.7777; stroke-dasharray: none; stroke-linecap: round; stroke-dashoffset: 0; stroke-linejoin: round; stroke-miterlimit: 10; is-custom-font: none; font-file-url: none; fill: none; fill-rule: nonzero; opacity: 1;" transform=" translate(-3.138, -11.9983)" d="M 1.04004 11.9983 H 5.23586" stroke-linecap="round"/>
</g>
		<g transform="matrix(1 0 0 1 -4.9112 6.63)">
<path style="stroke: rgb(255,255,255); stroke-width: 1.7777; stroke-dasharray: none; stroke-linecap: round; stroke-dashoffset: 0; stroke-linejoin: round; stroke-miterlimit: 10; is-custom-font: none; font-file-url: none; fill: none; fill-rule: nonzero; opacity: 1;" transform=" translate(-3.5888, -18.6301)" d="M 1.04004 18.6301 H 6.13755" stroke-linecap="round"/>
</g>
</g>
</g>
</svg>